# xmcd
#
# Track frame offsets:
#	150
#	11837
#	26946
#	43322
#	56321
#	67960
#	77595
#	89359
#	108234
#	121011
#	137215
#	150377
#	160282
#	168360
#	182462
#	195442
#	207204
#	221030
#
# Disc length: 3104 seconds
#
# Revision: 1
# Processed by: cddbd v1.5.2PL0 Copyright (c) Steve Scherf et al.
# Submitted via: audiograbber 1.83.01
#
DISCID=ec0c1e12
DTITLE=Various Artist - The world of Blasinstrumente CD2
DYEAR=1998
DGENRE=Big Band
TTITLE0=Swinging of beat
TTITLE1=In the mood
TTITLE2=just you and me
TTITLE3=dolce maria
TTITLE4=petite fleur
TTITLE5=play with kevin kramer
TTITLE6=please, release me
TTITLE7=laras theme 
TTITLE8=il silenzio
TTITLE9=ragazzi fuori
TTITLE10=so ein schöner tag
TTITLE11=night post
TTITLE12=flötenabitur 
TTITLE13=spanish eyes
TTITLE14=trumpet voluntary
TTITLE15=andantino cantabile
TTITLE16=schlafe mein prinzchen, schlaf ein
TTITLE17=chorale st. antoni
EXTD=
EXTT0=
EXTT1=
EXTT2=
EXTT3=
EXTT4=
EXTT5=
EXTT6=
EXTT7=
EXTT8=
EXTT9=
EXTT10=
EXTT11=
EXTT12=
EXTT13=
EXTT14=
EXTT15=
EXTT16=
EXTT17=
PLAYORDER=
